<svg width="46" height="46" viewBox="0 0 46 46" fill="none" xmlns="http://www.w3.org/2000/svg">
<g clip-path="url(#clip0_1_8050)">
<path d="M23.0016 0.717285C18.4271 0.720883 14.0411 2.53985 10.8067 5.77473C7.57238 9.0096 5.7541 13.3959 5.75122 17.9703C5.75338 22.5448 7.57151 26.9312 10.8061 30.1658C14.0407 33.4004 18.4271 35.2185 23.0016 35.2207C27.576 35.2185 31.9624 33.4004 35.197 30.1658C38.4316 26.9312 40.2497 22.5448 40.2519 17.9703C40.249 13.3954 38.4304 9.00872 35.1954 5.77377C31.9605 2.53882 27.5738 0.720164 22.9988 0.717285H23.0016ZM23.0016 2.15436C25.0785 2.15365 27.1352 2.56229 29.0541 3.35693C30.973 4.15157 32.7165 5.31663 34.1848 6.78549C35.6532 8.25435 36.8176 9.99822 37.6116 11.9174C38.4056 13.8366 38.8135 15.8934 38.8121 17.9703C38.8121 26.7123 31.7435 33.7809 23.0016 33.7809C14.2596 33.7809 7.19101 26.7123 7.19101 17.9703C7.18958 15.8936 7.59743 13.837 8.39124 11.918C9.18506 9.99902 10.3493 8.25528 11.8173 6.78645C13.2854 5.31762 15.0286 4.15251 16.9471 3.35771C18.8657 2.56291 20.9221 2.154 22.9988 2.15436H23.0016Z" fill="#4C9DE8"/>
<path d="M2.66235 39.5401L9.41307 27.8506L10.6573 28.5705L4.70251 38.8772L10.6464 37.7064C10.8168 37.6734 10.9934 37.703 11.1436 37.7899C11.2939 37.8767 11.4077 38.0149 11.4641 38.1791L13.4146 43.9111L19.2363 33.8325L20.4832 34.5551L13.8683 46.0083C13.799 46.1278 13.6969 46.2248 13.574 46.2879C13.4511 46.3509 13.3127 46.3773 13.1752 46.3638C13.0378 46.3504 12.9071 46.2977 12.7988 46.212C12.6904 46.1263 12.6091 46.0113 12.5643 45.8806L10.3041 39.2413L3.42843 40.5996C3.29346 40.6261 3.15372 40.6133 3.02575 40.5629C2.89779 40.5125 2.78695 40.4264 2.70635 40.315C2.62576 40.2035 2.57878 40.0713 2.57098 39.934C2.56318 39.7966 2.59489 39.66 2.66235 39.5401Z" fill="#4C9DE8"/>
<path d="M35.3483 28.5732L36.5898 27.8506L43.3378 39.5401C43.4053 39.66 43.437 39.7966 43.4292 39.934C43.4214 40.0713 43.3744 40.2035 43.2938 40.315C43.2132 40.4264 43.1024 40.5125 42.9744 40.5629C42.8465 40.6133 42.7067 40.6261 42.5718 40.5996L35.6988 39.2413L33.4359 45.8806C33.3911 46.0113 33.3097 46.1263 33.2014 46.212C33.0931 46.2977 32.9624 46.3504 32.825 46.3638C32.6875 46.3773 32.5491 46.3509 32.4262 46.2879C32.3033 46.2248 32.2011 46.1278 32.1319 46.0083L25.5197 34.5579L26.7694 33.8352L32.5883 43.9138L34.5415 38.1818C34.5979 38.0177 34.7118 37.8795 34.862 37.7926C35.0123 37.7057 35.1888 37.6761 35.3592 37.7091L41.3004 38.88L35.3483 28.5732Z" fill="#4C9DE8"/>
<path d="M23.0014 9.9646C22.4907 9.9646 22.4038 10.1874 22.2679 10.3259C21.4828 11.2332 20.4261 13.1023 20.0349 13.7216C18.7146 14.0503 17.3102 14.3247 16.1203 14.792C15.9464 14.8789 15.7101 14.8979 15.5498 15.3815C15.395 15.8677 15.5742 16.0172 15.6639 16.1883C16.2425 17.1581 17.8888 18.981 18.2039 19.3613C18.1224 20.8092 17.9241 22.1132 18.0137 23.4144C18.0409 23.6046 17.9839 23.8355 18.3941 24.137C18.807 24.4359 19.0107 24.3109 19.2009 24.2783C20.3337 24.0066 22.3657 23.0993 23.0014 22.8467C24.2782 23.3329 25.5441 23.955 26.7992 24.2783C26.9894 24.3109 27.1931 24.4359 27.606 24.137C28.0189 23.8382 27.9592 23.6046 27.9863 23.4144C28.0841 22.2925 27.8315 19.8557 27.7962 19.3613C28.5297 18.5028 29.3175 17.5819 30.0102 16.699C30.4041 16.2698 30.5644 15.8134 30.4503 15.3815C30.3335 14.9495 30.0564 14.8789 29.8825 14.792C28.6139 14.2894 27.2692 14.0503 25.9679 13.7216C25.2181 12.5807 24.5607 11.3256 23.7322 10.3259C23.5963 10.1901 23.5121 9.9646 22.9987 9.9646H23.0014ZM23.0014 11.7114C23.6317 12.6323 24.1614 13.5695 24.7618 14.485C24.8596 14.6208 24.8921 14.7159 25.1231 14.8843C25.354 15.0501 25.4463 15.0501 25.6066 15.1017C26.6797 15.3869 27.7283 15.6205 28.7905 15.9166C28.1167 16.8077 27.3833 17.5982 26.6987 18.4539C26.5982 18.5898 26.5221 18.6441 26.4325 18.9158C26.3455 19.1874 26.3727 19.2798 26.3754 19.4455C26.4297 20.5593 26.533 21.6296 26.5819 22.7326C25.3866 22.3169 24.1152 21.6459 23.0014 21.4096C22.7162 21.4096 22.6401 21.4666 22.4798 21.5183C21.4394 21.9149 20.4505 22.3441 19.4182 22.7298C19.4535 21.6106 19.5758 20.543 19.6274 19.4455C19.6274 19.2798 19.6546 19.1847 19.5676 18.9158C19.4807 18.6441 19.4046 18.5898 19.3014 18.4539C18.6223 17.5955 17.8127 16.6827 17.2096 15.9166C18.2827 15.6015 19.3367 15.3842 20.3962 15.1017C20.5565 15.0501 20.6488 15.0501 20.8797 14.8843C21.1079 14.7159 21.1433 14.6208 21.2383 14.485C21.6187 13.9254 21.9881 13.3006 22.3114 12.7736C22.5303 12.4124 22.7604 12.0582 23.0014 11.7114Z" fill="#4C9DE8"/>
</g>
<defs>
<clipPath id="clip0_1_8050">
<rect width="46" height="46" fill="white"/>
</clipPath>
</defs>
</svg>
