<svg width="45" height="52" viewBox="0 0 45 52" fill="none" xmlns="http://www.w3.org/2000/svg">
<path d="M39.1218 17.8444C38.893 13.0399 35.2782 3.08789 22.6494 3.08789" stroke="#4C9DE8" stroke-width="1.27"/>
<path d="M6.17707 17.8444C6.40585 13.0399 10.0206 3.08789 22.6494 3.08789" stroke="#4C9DE8" stroke-width="1.27"/>
<path d="M38.1427 18.185L40.0593 18.2425C41.2058 18.3898 42.2707 18.8299 43.047 19.623C43.8205 20.4131 44.365 21.6117 44.365 23.3902V32.5859C44.365 34.353 43.819 35.5495 43.0437 36.3405C42.2653 37.1346 41.1998 37.5767 40.0592 37.7238L38.1425 37.7813H36.2935C36.2024 37.7813 36.1151 37.7451 36.0508 37.6808C35.9864 37.6164 35.9502 37.5291 35.9502 37.438V18.5283C35.9502 18.4372 35.9864 18.3499 36.0508 18.2855C36.1151 18.2212 36.2024 18.185 36.2935 18.185H38.1427ZM1.95633 19.6258C2.73364 18.8328 3.79744 18.3908 4.93636 18.2431L8.71011 18.185C8.79986 18.186 8.88572 18.222 8.94925 18.2855C9.01362 18.3499 9.04978 18.4372 9.04978 18.5283V37.4674C9.04978 37.5584 9.01362 37.6457 8.94925 37.7101C8.88487 37.7745 8.79756 37.8107 8.70652 37.8107H5.86957C4.54698 37.8107 3.23787 37.4472 2.27116 36.6381C1.32354 35.8449 0.635 34.5659 0.635 32.5761V23.3804C0.635 21.6133 1.18098 20.4168 1.95633 19.6258ZM27.5878 48.9522V48.9546V49.5196C27.5878 50.2495 26.9962 50.8411 26.2663 50.8411H20.0935C19.3636 50.8411 18.772 50.2495 18.772 49.5196V46.3402C18.772 45.6103 19.3636 45.0187 20.0935 45.0187H26.2467C26.9766 45.0187 27.5683 45.6103 27.5682 46.3402L27.5683 46.345L27.5878 48.9522Z" fill="#E3F2FF" stroke="#4C9DE8" stroke-width="1.27"/>
<path d="M39.4644 37.75C39.2356 41.0673 34.66 45.9862 28.1396 47.3589" stroke="#4C9DE8" stroke-width="1.27"/>
<path d="M27.5008 26.7251L29.2642 27.0134C29.3341 27.0249 29.3975 27.0608 29.4433 27.1148C29.4891 27.1688 29.5141 27.2373 29.5141 27.3081V28.9489C29.514 29.0191 29.4892 29.087 29.444 29.1408C29.3988 29.1945 29.3361 29.2306 29.267 29.2426L27.5008 29.5529C27.3989 29.9079 27.2589 30.2468 27.0807 30.5696L28.1249 32.0191C28.1665 32.0767 28.1863 32.1472 28.1806 32.218C28.1749 32.2888 28.1441 32.3552 28.0938 32.4053L26.9334 33.5657C26.8838 33.6155 26.8183 33.6462 26.7483 33.6524C26.6783 33.6586 26.6084 33.6399 26.5509 33.5996L25.0867 32.5719C24.7624 32.7519 24.4193 32.8955 24.0635 33.0002L23.7524 34.7581C23.7401 34.8273 23.7038 34.8899 23.6499 34.9349C23.596 34.9799 23.528 35.0045 23.4577 35.0043H21.8178C21.7473 35.0044 21.679 34.9794 21.6252 34.9338C21.5714 34.8882 21.5356 34.825 21.5241 34.7554L21.2321 33.0066C20.8749 32.9031 20.5302 32.7604 20.2044 32.581L18.7512 33.5996C18.6937 33.6399 18.6238 33.6586 18.5538 33.6524C18.4838 33.6462 18.4183 33.6155 18.3687 33.5657L17.2074 32.4053C17.1581 32.3551 17.1279 32.2891 17.122 32.2189C17.1162 32.1487 17.135 32.0787 17.1754 32.021L18.2031 30.5842C18.0217 30.2569 17.8775 29.9103 17.7729 29.551L16.0333 29.2426C15.9643 29.2304 15.9018 29.1942 15.8568 29.1405C15.8118 29.0868 15.7871 29.019 15.7871 28.9489V27.3081C15.7871 27.1616 15.8923 27.0372 16.0369 27.0134L17.7766 26.7233C17.8821 26.3633 18.0255 26.0192 18.2067 25.691L17.1909 24.2396C17.1509 24.1822 17.1323 24.1124 17.1385 24.0427C17.1447 23.9729 17.1752 23.9075 17.2248 23.858L18.3861 22.6985C18.436 22.6486 18.502 22.6179 18.5724 22.6121C18.6428 22.6062 18.7129 22.6255 18.7704 22.6665L20.2118 23.696C20.5369 23.5179 20.8789 23.3776 21.2376 23.2751L21.5231 21.5272C21.5347 21.4573 21.5706 21.3939 21.6246 21.3481C21.6786 21.3024 21.7471 21.2773 21.8178 21.2773H23.4586C23.6042 21.2773 23.7277 21.3817 23.7533 21.5244L24.0608 23.2815C24.4177 23.3846 24.7594 23.5264 25.0857 23.707L26.5298 22.6683C26.5873 22.6266 26.6577 22.6067 26.7285 22.6122C26.7993 22.6178 26.8658 22.6484 26.916 22.6985L28.0764 23.8589C28.126 23.9086 28.1566 23.9742 28.1626 24.0442C28.1686 24.1142 28.1498 24.184 28.1093 24.2415L27.0798 25.7084C27.2567 26.0318 27.3971 26.3703 27.5008 26.7242V26.7251ZM20.5604 28.1408C20.5604 28.6949 20.7805 29.2263 21.1724 29.6181C21.5642 30.0099 22.0956 30.2301 22.6497 30.2301C23.2038 30.2301 23.7352 30.0099 24.127 29.6181C24.5188 29.2263 24.7389 28.6949 24.7389 28.1408C24.7389 27.5867 24.5188 27.0553 24.127 26.6635C23.7352 26.2717 23.2038 26.0516 22.6497 26.0516C22.0956 26.0516 21.5642 26.2717 21.1724 26.6635C20.7805 27.0553 20.5604 27.5867 20.5604 28.1408Z" fill="#E3F2FF" stroke="#4C9DE8" stroke-width="1.27"/>
</svg>
