<svg width="60" height="42" viewBox="0 0 60 42" fill="none" xmlns="http://www.w3.org/2000/svg">
<path d="M6.5 14H17M1 20.6398H17M6.5 27H17" stroke="#4C9DE8" stroke-width="1.23" stroke-linecap="round"/>
<path d="M37.9926 20.9985C37.9922 21.2219 38.0354 21.4434 38.1199 21.6502C38.2044 21.8571 38.3286 22.0456 38.4857 22.2046L38.4862 22.2052L42.8102 26.5718C43.1281 26.8928 43.5605 27.0742 44.0126 27.0742C44.4647 27.0742 44.8971 26.8928 45.2149 26.5718C45.5326 26.251 45.71 25.8172 45.71 25.3662C45.71 24.9151 45.5326 24.4813 45.2149 24.1605L45.2148 24.1604L41.3846 20.2945V12.2663C41.3846 11.8156 41.2073 11.3822 40.89 11.0617C40.5724 10.7409 40.1403 10.5596 39.6886 10.5596C39.2368 10.5596 38.8048 10.7409 38.4872 11.0617C38.1698 11.3822 37.9926 11.8156 37.9926 12.2663V20.9985ZM37.9926 20.9985L38.6076 20.9995H37.9926V20.9985ZM40.1546 20.5476V20.8007L40.3327 20.9805L44.3409 25.026C44.4293 25.1152 44.48 25.2374 44.48 25.3662C44.48 25.4949 44.4293 25.6171 44.3409 25.7063C44.2528 25.7953 44.1346 25.8442 44.0126 25.8442C43.8906 25.8442 43.7724 25.7953 43.6842 25.7063L39.3608 21.3403C39.3607 21.3402 39.3607 21.3402 39.3607 21.3401C39.3172 21.2961 39.2824 21.2435 39.2586 21.1852C39.2347 21.1268 39.2225 21.0641 39.2226 21.0006V20.9995V12.2663C39.2226 12.1379 39.2731 12.0161 39.3612 11.9271C39.4491 11.8384 39.5669 11.7896 39.6886 11.7896C39.8102 11.7896 39.9281 11.8384 40.016 11.9271C40.104 12.0161 40.1546 12.1379 40.1546 12.2663V20.5476ZM21.9265 20.9995C21.9265 16.2388 23.7993 11.6742 27.131 8.30969C30.4625 4.94536 34.9797 3.05641 39.6886 3.05641C44.3974 3.05641 48.9146 4.94536 52.2461 8.30969C55.5778 11.6742 57.4506 16.2388 57.4506 20.9995C57.4506 25.7603 55.5778 30.3249 52.2461 33.6894C48.9146 37.0537 44.3974 38.9427 39.6886 38.9427C34.9797 38.9427 30.4625 37.0537 27.131 33.6894C23.7993 30.3249 21.9265 25.7603 21.9265 20.9995Z" stroke="#4C9DE8" stroke-width="1.23"/>
</svg>
