<svg width="52" height="52" viewBox="0 0 52 52" fill="none" xmlns="http://www.w3.org/2000/svg">
<path d="M50.4179 33.48L43.7584 19.5141C43.7238 19.4416 43.6752 19.3767 43.6154 19.323C43.5556 19.2693 43.4859 19.228 43.4101 19.2013C43.2577 19.1475 43.0891 19.1566 42.9429 19.2277L37.7998 21.714C37.4981 21.8602 37.3701 22.2218 37.5154 22.5244L38.1319 23.8173C37.3163 23.8732 36.2651 23.7686 35.0951 23.5939C38.1359 19.1414 37.8993 14.3294 37.5479 7.25655L37.5428 7.14788C37.536 7.00875 37.4817 6.87616 37.3889 6.77227C37.2961 6.66839 37.1704 6.59949 37.033 6.5771C34.7945 6.21046 33.3137 4.95311 32.5073 2.73296C32.4645 2.61541 32.3866 2.51386 32.2841 2.4421C32.1817 2.37033 32.0596 2.33182 31.9345 2.33179H20.068C19.812 2.33179 19.5825 2.49226 19.4951 2.73296C18.6877 4.95311 17.2069 6.21046 14.9695 6.5771C14.8321 6.59967 14.7066 6.66862 14.6138 6.77247C14.521 6.87632 14.4667 7.00881 14.4597 7.14788L14.4546 7.25757C14.0402 15.5979 13.7883 20.6933 18.7212 25.8059C18.6796 25.9227 18.641 26.0405 18.6065 26.1634C17.3075 26.4265 15.5921 26.2457 14.5023 25.4088L14.7268 24.9599C14.7989 24.8147 14.8111 24.6471 14.7593 24.4927C14.7074 24.3392 14.5967 24.2124 14.4515 24.1403L9.32975 21.6104C9.18542 21.5391 9.01876 21.5278 8.86615 21.579C8.71354 21.6302 8.58738 21.7397 8.51522 21.8836L1.58764 35.7174C1.5518 35.7893 1.53049 35.8676 1.52491 35.9478C1.51934 36.0279 1.52961 36.1084 1.55514 36.1846C1.60704 36.3382 1.7177 36.4649 1.86288 36.537L6.98467 39.0669C7.071 39.1096 7.16342 39.1299 7.25381 39.1299C7.47725 39.1299 7.69256 39.006 7.7992 38.7927L7.95459 38.483L9.67811 39.5392L9.1317 40.6219C8.49186 41.8904 9.00374 43.4423 10.2723 44.0821C10.6297 44.2627 11.0245 44.357 11.425 44.3573C11.5113 44.3573 11.5987 44.3512 11.685 44.3421C11.2584 45.5456 11.7845 46.9106 12.9535 47.5007C13.3109 47.6813 13.7058 47.7756 14.1062 47.7759C14.3784 47.7759 14.6526 47.7323 14.9187 47.6449C15.2021 47.5515 15.4611 47.4103 15.6896 47.2336C15.9301 47.7683 16.3476 48.2038 16.8718 48.4666C17.2292 48.6472 17.624 48.7415 18.0245 48.7418C18.2967 48.7418 18.5709 48.6981 18.837 48.6108C19.1326 48.5133 19.3997 48.365 19.6353 48.1781C19.878 48.7042 20.2853 49.1308 20.8083 49.3948C21.1658 49.5755 21.5606 49.6697 21.9611 49.6701C22.2333 49.6701 22.5075 49.6264 22.7736 49.5391C23.3944 49.336 23.914 48.9033 24.2259 48.3294L25.6407 49.2029C26.0612 49.4629 26.5283 49.5868 26.9905 49.5868C27.8548 49.5868 28.6998 49.1521 29.1873 48.365C29.3589 48.0867 29.4737 47.783 29.5295 47.4692C29.8423 47.6002 30.1755 47.6683 30.5137 47.6683C30.7161 47.668 30.9178 47.6445 31.1149 47.5982C31.7862 47.4398 32.354 47.0305 32.7145 46.4465C32.9765 46.023 33.0994 45.5517 33.0974 45.0876L33.1055 45.0926C33.526 45.3526 33.9932 45.4766 34.4553 45.4766C35.3196 45.4766 36.1656 45.0419 36.6521 44.2548C36.908 43.8404 37.037 43.3722 37.035 42.8948L37.3976 43.1193C37.818 43.3793 38.2852 43.5032 38.7473 43.5032C39.6116 43.5032 40.4566 43.0685 40.9441 42.2814C41.3047 41.6974 41.4154 41.0068 41.2569 40.3355C41.1107 39.718 40.7522 39.1878 40.2342 38.8222C40.9797 37.188 42.1283 36.1125 43.7259 35.5498L44.1738 36.4893C44.2235 36.5932 44.3015 36.6809 44.3989 36.7424C44.4963 36.8039 44.6091 36.8365 44.7243 36.8366C44.8157 36.8366 44.9061 36.8163 44.9894 36.7757L50.1325 34.2894C50.2775 34.2197 50.3889 34.0954 50.4424 33.9437C50.4959 33.792 50.4871 33.6252 50.4179 33.48ZM15.653 7.68413C17.9321 7.17327 19.5551 5.78491 20.4854 3.54851H31.5171C32.4474 5.7839 34.0704 7.17327 36.3494 7.68413C36.7019 14.7945 36.8623 19.2023 33.7545 23.3745C33.3188 23.2994 32.874 23.2191 32.4251 23.1379C32.294 23.1145 32.161 23.0901 32.028 23.0668C35.2383 19.3882 35.0525 15.6263 34.7569 9.67171L34.7529 9.59046C34.7461 9.45133 34.6918 9.31874 34.599 9.21485C34.5062 9.11097 34.3805 9.04207 34.243 9.01968C32.6363 8.75663 31.573 7.85272 30.993 6.25616C30.9502 6.13861 30.8723 6.03707 30.7699 5.9653C30.6674 5.89354 30.5453 5.85503 30.4202 5.85499H21.5823C21.3263 5.85499 21.0968 6.01546 21.0094 6.25616C20.4295 7.85171 19.3662 8.75562 17.7594 9.01968C17.622 9.04225 17.4965 9.11119 17.4037 9.21505C17.311 9.3189 17.2566 9.45139 17.2496 9.59046L17.2455 9.67171C16.9388 15.8508 16.7489 19.6919 20.3848 23.5177C19.9625 23.8292 19.5961 24.21 19.3012 24.6441C15.1056 20.089 15.263 15.5532 15.653 7.68413ZM21.4817 22.8972C18.0601 19.4461 18.1505 16.0478 18.443 10.1237C20.1005 9.71944 21.2918 8.69671 21.9956 7.07476H30.0058C30.7087 8.69671 31.901 9.71944 33.5585 10.1237C33.85 16.0244 33.9394 19.3933 30.598 22.8169C28.3798 22.4422 26.0622 22.1385 24.0797 22.301C23.0864 22.3812 22.2201 22.5813 21.4817 22.8972ZM6.98163 37.705L2.95264 35.7144L9.3328 22.9683L13.3618 24.9589L6.98163 37.705ZM10.8207 42.9954C10.1524 42.6582 9.88225 41.8406 10.2194 41.1713L11.0177 39.588C11.1802 39.266 11.4595 39.0263 11.8058 38.9126C12.1522 38.7988 12.5198 38.8252 12.8418 38.9877C13.5101 39.3249 13.7792 40.1415 13.443 40.8098L12.6437 42.3951C12.4812 42.7171 12.2019 42.9568 11.8556 43.0705C11.5103 43.1843 11.1426 43.1579 10.8207 42.9954ZM14.5379 46.4891C14.1915 46.6029 13.8239 46.5765 13.5019 46.414C12.8337 46.0768 12.5635 45.2592 12.9007 44.5899L14.5308 41.3582L14.5318 41.3562L15.3615 39.7098C15.6002 39.2365 16.0796 38.9633 16.5762 38.9633C16.7814 38.9633 16.9896 39.0101 17.1856 39.1086C17.8539 39.4458 18.1241 40.2633 17.7869 40.9326L15.7323 45.0073L15.7312 45.0094L15.326 45.8127C15.1645 46.1357 14.8842 46.3754 14.5379 46.4891ZM18.4572 47.456C18.1108 47.5698 17.7432 47.5434 17.4212 47.3808C17.0993 47.2183 16.8596 46.9391 16.7448 46.5927C16.6311 46.2474 16.6575 45.8798 16.819 45.5588L18.4683 42.2875C18.6308 41.9655 18.9101 41.7258 19.2565 41.6111C19.6028 41.4973 19.9705 41.5237 20.2924 41.6862C20.9607 42.0234 21.2308 42.841 20.8937 43.5103L19.6698 45.9376L19.2453 46.7806C19.0828 47.1016 18.8025 47.3423 18.4572 47.456ZM22.3948 48.3843C22.0484 48.498 21.6808 48.4716 21.3588 48.3091C21.0369 48.1466 20.7972 47.8673 20.6824 47.521C20.5687 47.1757 20.5951 46.808 20.7565 46.4861L21.5558 44.9017C21.7183 44.5798 21.9976 44.3401 22.344 44.2263C22.6893 44.1126 23.058 44.139 23.3799 44.3015C23.7019 44.464 23.9415 44.7433 24.0563 45.0896C24.1701 45.4359 24.1437 45.8036 23.9812 46.1255L23.1829 47.7089C23.0204 48.0298 22.7411 48.2705 22.3948 48.3843ZM39.9082 41.6426C39.5151 42.2794 38.6762 42.4774 38.0394 42.0844L35.0687 40.2501L34.3344 39.7972C34.197 39.7152 34.0329 39.6906 33.8775 39.7286C33.722 39.7665 33.5878 39.8641 33.5036 40.0002C33.4195 40.1363 33.3923 40.3001 33.4278 40.4561C33.4634 40.6121 33.5588 40.7479 33.6936 40.8341L35.1744 41.7482C35.4811 41.9371 35.6964 42.2367 35.7797 42.5912C35.863 42.9456 35.8051 43.3092 35.6162 43.6159C35.2231 44.2527 34.3852 44.4508 33.7474 44.0577L31.8787 42.904L31.8766 42.903H31.8756L30.9483 42.3301C30.8109 42.2482 30.6468 42.2235 30.4914 42.2615C30.3359 42.2995 30.2017 42.3971 30.1175 42.5332C30.0334 42.6693 30.0062 42.833 30.0417 42.989C30.0773 43.1451 30.1727 43.2808 30.3075 43.3671L31.2368 43.9409C31.8726 44.335 32.0706 45.1719 31.6776 45.8087C31.4887 46.1154 31.1891 46.3307 30.8346 46.414C30.4801 46.4973 30.1166 46.4394 29.8098 46.2505L27.5633 44.8631C27.4258 44.7812 27.2617 44.7565 27.1063 44.7945C26.9509 44.8325 26.8166 44.9301 26.7325 45.0662C26.6484 45.2023 26.6211 45.366 26.6567 45.522C26.6922 45.678 26.7876 45.8138 26.9224 45.9001L28.326 46.7664C28.388 47.0975 28.328 47.4377 28.1503 47.7262C27.7573 48.363 26.9183 48.561 26.2815 48.168L24.7805 47.2417L25.0679 46.673C25.3766 46.0605 25.4284 45.3618 25.2121 44.7077C24.9958 44.0526 24.5398 43.5215 23.9273 43.2127C23.4107 42.951 22.8205 42.8729 22.2536 42.9913C22.2871 42.0173 21.7651 41.0647 20.8398 40.5985C20.3178 40.3343 19.7209 40.2572 19.1488 40.3801C19.1691 39.4183 18.6481 38.483 17.733 38.0219C16.564 37.4328 15.1544 37.8218 14.4394 38.8791C14.1976 38.4728 13.8412 38.1275 13.3882 37.899C12.7758 37.5902 12.078 37.5384 11.423 37.7548C10.9897 37.8969 10.6023 38.1521 10.3007 38.4941L8.49999 37.3901L13.9458 26.5108C14.9421 27.1923 16.233 27.4919 17.4537 27.4919C17.6924 27.4919 17.928 27.4807 18.1576 27.4584C18.0601 27.6564 17.9473 27.8504 17.8163 28.0505L15.259 31.9373C15.1645 32.0815 15.1351 32.2582 15.1777 32.4248C15.2204 32.5913 15.3321 32.7315 15.4844 32.8117C16.562 33.3774 17.5208 33.6557 18.4155 33.6557C18.9101 33.6557 19.3855 33.5704 19.8506 33.4008C21.0897 32.9498 22.1977 31.9149 23.3078 30.168L39.4623 39.7748C40.1032 40.1669 40.3012 41.0058 39.9082 41.6426ZM39.1871 38.1905L31.7812 33.7857C33.0121 33.6212 34.044 32.9326 34.7123 31.7565C34.8788 31.464 34.7762 31.0923 34.4837 30.9257C34.1912 30.7591 33.8195 30.8617 33.653 31.1542C32.7887 32.6756 31.1596 33.025 29.1852 32.115C29.0867 32.0693 28.9821 32.053 28.8805 32.0612L23.4175 28.8122L23.4165 28.8112C23.2772 28.7291 23.111 28.7056 22.9545 28.746C22.7979 28.7864 22.6638 28.8873 22.5816 29.0265C20.4854 32.5791 18.7182 32.9163 16.6615 32.0236L18.836 28.7187C19.2666 28.0647 19.5419 27.4319 19.7308 26.6662C20.8114 22.2837 26.8655 23.3745 32.2067 24.3363C34.8128 24.8055 37.0969 25.2159 38.6854 24.9792L43.1988 34.4458C41.3991 35.1151 40.0534 36.3715 39.1871 38.1905ZM45.0107 35.4127L39.5761 24.0154L38.8763 22.5468L42.9226 20.5917L49.0569 33.4576L45.0107 35.4127ZM24.1579 20.0534L21.241 17.1366C21.0033 16.8989 21.0033 16.513 21.241 16.2743C21.3553 16.1602 21.5101 16.0961 21.6716 16.0961C21.8331 16.0961 21.988 16.1602 22.1023 16.2743L24.5885 18.7605L29.8972 13.4519C30.1348 13.2142 30.5208 13.2142 30.7584 13.4519C30.9961 13.6895 30.9961 14.0755 30.7584 14.3141L25.0191 20.0534C24.9626 20.11 24.8955 20.155 24.8216 20.1856C24.7477 20.2162 24.6685 20.232 24.5885 20.232C24.5085 20.232 24.4293 20.2162 24.3554 20.1856C24.2815 20.155 24.2144 20.11 24.1579 20.0534Z" fill="#4C9DE8"/>
</svg>
